<svg width="24" height="24" viewBox="0 0 24 24" fill="none" xmlns="http://www.w3.org/2000/svg">
<path d="M14.1943 0.711287C12.1726 0.318312 10.0825 0.475469 8.14231 1.16634C6.20212 1.85721 4.48306 3.05644 3.16474 4.63874C1.84642 6.22104 0.977212 8.12834 0.647933 10.1614C0.318654 12.1944 0.541386 14.2786 1.29286 16.1961L12 12L14.1943 0.711287Z" fill="#CFCFCF"/>
<circle cx="12.5" cy="12.5" r="10" fill="#F9F9F9"/>
<path d="M20.5 12.5C20.5 16.9183 16.9183 20.5 12.5 20.5C8.08172 20.5 4.5 16.9183 4.5 12.5C4.5 8.08172 8.08172 4.5 12.5 4.5C16.9183 4.5 20.5 8.08172 20.5 12.5Z" fill="#27BE58"/>
</svg>
