<svg width="24" height="24" viewBox="0 0 24 24" fill="none" xmlns="http://www.w3.org/2000/svg">
<path d="M21.0999 14.8757L12.6999 23.3007C12.5999 23.4007 12.4916 23.4714 12.3749 23.5127C12.2582 23.5547 12.1332 23.5757 11.9999 23.5757C11.8666 23.5757 11.7416 23.5547 11.6249 23.5127C11.5082 23.4714 11.3999 23.4007 11.2999 23.3007L2.8749 14.8757C2.64157 14.6423 2.5249 14.3507 2.5249 14.0007C2.5249 13.6507 2.6499 13.3507 2.8999 13.1007C3.1499 12.8507 3.44157 12.7257 3.7749 12.7257C4.10824 12.7257 4.3999 12.8507 4.6499 13.1007L11.9999 20.4507L19.3499 13.1007C19.5832 12.8673 19.8706 12.7507 20.2119 12.7507C20.5539 12.7507 20.8499 12.8757 21.0999 13.1257C21.3499 13.3757 21.4749 13.6673 21.4749 14.0007C21.4749 14.334 21.3499 14.6257 21.0999 14.8757Z" fill="black"/>
</svg>
